<?xml version="1.0" encoding="utf-8"?>
<!-- Generator: Adobe Illustrator 17.1.0, SVG Export Plug-In . SVG Version: 6.00 Build 0)  -->
<!DOCTYPE svg PUBLIC "-//W3C//DTD SVG 1.1//EN" "http://www.w3.org/Graphics/SVG/1.1/DTD/svg11.dtd">
<svg version="1.1" id="Layer_1" xmlns="http://www.w3.org/2000/svg" xmlns:xlink="http://www.w3.org/1999/xlink" x="0px" y="0px"
	 viewBox="0 0 57.3 57.3" enable-background="new 0 0 57.3 57.3" xml:space="preserve">
<g>
	<path fill="#89AABD" d="M56.8,48.9c0,4.4-3.5,7.9-7.9,7.9H7.9c-4.4,0-7.9-3.5-7.9-7.9V7.9C0,3.5,3.5,0,7.9,0h41.1
		c4.4,0,7.9,3.5,7.9,7.9V48.9z"/>
	<g>
		<path fill="#FFFFFF" d="M50.7,18.2h-0.8c-0.4-0.1-1-0.3-1.9-0.5c-0.8-0.2-1.7-0.3-2.4-0.3c-2.1,0-3.6,0.4-4.3,1.2
			c-0.8,0.8-1.2,2.2-1.2,4.4v0.3h8.3v7.3h-8v26.3H30V30.5h-4.2v-7.3H30v-0.9c0-4.1,1.1-7.2,3.2-9.2c2.2-2.1,5.4-3.1,9.8-3.1
			c1.5,0,2.9,0.1,4.2,0.2c1.3,0.1,2.5,0.3,3.4,0.4V18.2z"/>
	</g>
	<polygon fill="#89AABD" points="48.5,23.1 46.2,31.4 48.5,32.3 	"/>
</g>
</svg>
