<?xml version="1.0" encoding="utf-8"?>
<!-- Generator: Adobe Illustrator 17.1.0, SVG Export Plug-In . SVG Version: 6.00 Build 0)  -->
<!DOCTYPE svg PUBLIC "-//W3C//DTD SVG 1.1//EN" "http://www.w3.org/Graphics/SVG/1.1/DTD/svg11.dtd">
<svg version="1.1" id="Layer_1" xmlns="http://www.w3.org/2000/svg" xmlns:xlink="http://www.w3.org/1999/xlink" x="0px" y="0px"
	 viewBox="0 0 53.6 46" enable-background="new 0 0 53.6 46" xml:space="preserve">
<g>
	<path fill="#727373" d="M13.6,41.8c0,1.5,1.2,2.8,2.8,2.8h20.9c1.5,0,2.8-1.2,2.8-2.8V10.3c0-1.5-1.2-2.8-2.8-2.8H16.4
		c-1.5,0-2.8,1.2-2.8,2.8V41.8z"/>
	<path fill="none" stroke="#ACCBD8" stroke-width="2.1527" stroke-miterlimit="10" d="M13.6,41.8c0,1.5,1.2,2.8,2.8,2.8h20.9
		c1.5,0,2.8-1.2,2.8-2.8V10.3c0-1.5-1.2-2.8-2.8-2.8H16.4c-1.5,0-2.8,1.2-2.8,2.8V41.8z"/>
</g>
<g>
	<path fill="#89AABD" d="M15.1,5.6c0,0.6,0.4,1,1,1h21.4c0.6,0,1-0.4,1-1V1.8c0-0.6-0.4-1-1-1H16.1c-0.6,0-1,0.4-1,1V5.6z"/>
</g>
<g>
	<path fill="#89AABD" d="M0.5,37.1c0,2.1,1.7,3.9,3.9,3.9h44.8c2.1,0,3.9-1.7,3.9-3.9v-8.4c0-2.1-1.7-3.9-3.9-3.9H4.4
		c-2.1,0-3.9,1.7-3.9,3.9V37.1z"/>
</g>
<text transform="matrix(1 0 0 1 2.4081 37.1786)" fill="#FFFFFF" font-family="'OpenSans'" font-size="12">dreamer</text>
<path fill="#F2F2F2" d="M28.5,24.2c-3.8,0-6.9-3.1-6.9-6.9c0-3.1,2.1-5.8,5-6.7c-4.6,0.1-8.2,3.9-8.2,8.5c0,4.7,3.8,8.5,8.5,8.5
	c4.7,0,8.5-3.8,8.5-8.5c0,0,0-0.1,0-0.1C34.5,21.9,31.8,24.2,28.5,24.2z"/>
</svg>
